<?xml version="1.0" encoding="UTF-8"?>
<svg version="1.1" xmlns="http://www.w3.org/2000/svg" width="205" height="210">
<path d="M0 0 C2.25995961 -0.00217862 4.51942374 -0.02035953 6.77929688 -0.03930664 C15.22894113 -0.07094934 23.2247713 0.41250549 31.52929688 2.18530273 C31.52929688 2.84530273 31.52929688 3.50530273 31.52929688 4.18530273 C32.76679688 4.32967773 34.00429687 4.47405273 35.27929688 4.62280273 C38.09434187 4.97218775 40.79944657 5.3890964 43.52929688 6.18530273 C43.52929688 6.84530273 43.52929688 7.50530273 43.52929688 8.18530273 C45.50929687 8.51530273 47.48929688 8.84530273 49.52929688 9.18530273 C49.52929688 9.84530273 49.52929688 10.50530273 49.52929688 11.18530273 C50.70492187 11.40186523 50.70492187 11.40186523 51.90429688 11.62280273 C54.52929688 12.18530273 54.52929688 12.18530273 56.52929688 13.18530273 C56.52929688 13.84530273 56.52929688 14.50530273 56.52929688 15.18530273 C58.50929687 15.68030273 58.50929687 15.68030273 60.52929688 16.18530273 C60.52929688 16.84530273 60.52929688 17.50530273 60.52929688 18.18530273 C62.50929687 18.84530273 64.48929688 19.50530273 66.52929688 20.18530273 C66.52929688 20.84530273 66.52929688 21.50530273 66.52929688 22.18530273 C67.10679687 22.26780273 67.68429688 22.35030273 68.27929688 22.43530273 C71.20724289 23.41128474 72.58174224 24.82041497 74.52929688 27.18530273 C74.52929688 28.17530273 74.52929688 29.16530273 74.52929688 30.18530273 C75.51929688 30.18530273 76.50929687 30.18530273 77.52929688 30.18530273 C77.52929688 31.17530273 77.52929688 32.16530273 77.52929688 33.18530273 C78.51929688 33.18530273 79.50929687 33.18530273 80.52929688 33.18530273 C80.52929688 34.17530273 80.52929688 35.16530273 80.52929688 36.18530273 C81.51929688 36.51530273 82.50929687 36.84530273 83.52929688 37.18530273 C85.52929688 40.18530273 85.52929688 40.18530273 85.52929688 43.18530273 C86.51929688 43.51530273 87.50929687 43.84530273 88.52929688 44.18530273 C89.69726562 45.70874023 89.69726562 45.70874023 90.71679688 47.56030273 C91.06097656 48.16616211 91.40515625 48.77202148 91.75976562 49.39624023 C92.52929688 51.18530273 92.52929688 51.18530273 92.52929688 54.18530273 C93.18929687 54.18530273 93.84929687 54.18530273 94.52929688 54.18530273 C94.85929688 56.16530273 95.18929687 58.14530273 95.52929688 60.18530273 C96.18929687 60.18530273 96.84929687 60.18530273 97.52929688 60.18530273 C98.51929688 64.64030273 98.51929688 64.64030273 99.52929688 69.18530273 C100.18929687 69.18530273 100.84929687 69.18530273 101.52929688 69.18530273 C101.66207031 69.81178711 101.79484375 70.43827148 101.93164062 71.08374023 C102.10824219 71.90100586 102.28484375 72.71827148 102.46679688 73.56030273 C102.64082031 74.37241211 102.81484375 75.18452148 102.99414062 76.02124023 C103.45260381 78.21476573 103.45260381 78.21476573 104.52929688 80.18530273 C104.62960437 81.79798353 104.66763642 83.41473511 104.67456055 85.03051758 C104.6809404 86.0385141 104.68732025 87.04651062 104.69389343 88.08505249 C104.69556267 89.72409042 104.69556267 89.72409042 104.69726562 91.39624023 C104.70059402 92.51592194 104.70392242 93.63560364 104.70735168 94.78921509 C104.71242181 97.16147449 104.71475998 99.53374104 104.71459961 101.90600586 C104.71678364 105.53828688 104.73493193 109.1702631 104.75390625 112.80249023 C104.75684061 115.10457253 104.75882512 117.40665626 104.75976562 119.70874023 C104.76695114 120.79738373 104.77413666 121.88602722 104.78153992 123.00765991 C104.77846329 124.02196075 104.77538666 125.0362616 104.7722168 126.08129883 C104.77364182 126.97239349 104.77506683 127.86348816 104.77653503 128.78158569 C104.51016569 131.37130138 103.76121469 132.91835072 102.52929688 135.18530273 C102.14639226 137.17640674 101.80325072 139.17630786 101.52929688 141.18530273 C100.86929688 141.18530273 100.20929688 141.18530273 99.52929688 141.18530273 C98.86929688 144.15530273 98.20929688 147.12530273 97.52929688 150.18530273 C96.86929688 150.18530273 96.20929688 150.18530273 95.52929688 150.18530273 C95.19929687 152.16530273 94.86929688 154.14530273 94.52929688 156.18530273 C93.86929688 156.18530273 93.20929688 156.18530273 92.52929688 156.18530273 C92.44679687 157.07217773 92.36429688 157.95905273 92.27929688 158.87280273 C91.42945339 162.62627811 90.18901878 164.44498319 87.52929688 167.18530273 C86.86929688 167.18530273 86.20929688 167.18530273 85.52929688 167.18530273 C85.40554687 167.78342773 85.28179687 168.38155273 85.15429688 168.99780273 C84.52929688 171.18530273 84.52929688 171.18530273 82.52929688 174.18530273 C81.86929688 174.18530273 81.20929688 174.18530273 80.52929688 174.18530273 C80.52929688 175.17530273 80.52929688 176.16530273 80.52929688 177.18530273 C79.53929687 177.18530273 78.54929688 177.18530273 77.52929688 177.18530273 C77.52929688 178.17530273 77.52929688 179.16530273 77.52929688 180.18530273 C76.06825947 181.48400265 74.59888618 182.77713436 73.05664062 183.97827148 C71.42520983 185.21224926 71.42520983 185.21224926 69.77929688 186.99780273 C68.52929688 188.18530273 68.52929688 188.18530273 66.52929688 188.18530273 C66.52929688 188.84530273 66.52929688 189.50530273 66.52929688 190.18530273 C65.55992187 190.45342773 64.59054688 190.72155273 63.59179688 190.99780273 C62.07585937 191.58561523 62.07585937 191.58561523 60.52929688 192.18530273 C60.19929687 193.17530273 59.86929688 194.16530273 59.52929688 195.18530273 C58.53929687 195.18530273 57.54929688 195.18530273 56.52929688 195.18530273 C56.52929688 195.84530273 56.52929688 196.50530273 56.52929688 197.18530273 C53.06429687 198.17530273 53.06429687 198.17530273 49.52929688 199.18530273 C49.52929688 199.84530273 49.52929688 200.50530273 49.52929688 201.18530273 C47.54929688 201.51530273 45.56929687 201.84530273 43.52929688 202.18530273 C43.52929688 202.84530273 43.52929688 203.50530273 43.52929688 204.18530273 C39.40965918 205.47773809 35.86098005 206.44782899 31.52929688 206.18530273 C31.52929688 206.84530273 31.52929688 207.50530273 31.52929688 208.18530273 C22.50824126 209.88224689 13.69939885 210.50246914 4.53588867 210.44604492 C2.46503569 210.43529359 0.39504624 210.44602827 -1.67578125 210.45874023 C-12.35508659 210.47025581 -22.45593281 209.55244416 -32.53320312 205.86889648 C-34.49292762 205.17746143 -36.44849679 204.65925734 -38.47070312 204.18530273 C-38.47070312 203.52530273 -38.47070312 202.86530273 -38.47070312 202.18530273 C-39.92476562 201.99967773 -39.92476562 201.99967773 -41.40820312 201.81030273 C-42.41882812 201.60405273 -43.42945313 201.39780273 -44.47070312 201.18530273 C-44.80070312 200.52530273 -45.13070312 199.86530273 -45.47070312 199.18530273 C-47.44959273 198.45836369 -49.4502487 197.78714022 -51.47070312 197.18530273 C-51.47070312 196.52530273 -51.47070312 195.86530273 -51.47070312 195.18530273 C-52.79070313 194.85530273 -54.11070313 194.52530273 -55.47070312 194.18530273 C-55.47070312 193.52530273 -55.47070312 192.86530273 -55.47070312 192.18530273 C-56.08945312 192.04092773 -56.70820312 191.89655273 -57.34570312 191.74780273 C-59.47070312 191.18530273 -59.47070312 191.18530273 -61.47070312 190.18530273 C-61.47070312 189.52530273 -61.47070312 188.86530273 -61.47070312 188.18530273 C-62.13070312 188.18530273 -62.79070313 188.18530273 -63.47070312 188.18530273 C-64.49600716 187.2112639 -65.48839814 186.20269004 -66.47070312 185.18530273 C-67.41945312 184.42217773 -68.36820313 183.65905273 -69.34570312 182.87280273 C-72.51640699 180.24904529 -75.02103719 177.49955665 -77.47070312 174.18530273 C-77.47070312 173.19530273 -77.47070312 172.20530273 -77.47070312 171.18530273 C-78.36789063 170.84499023 -78.36789063 170.84499023 -79.28320312 170.49780273 C-82.06418716 168.82921231 -83.03489472 167.05691954 -84.47070312 164.18530273 C-84.47070312 163.52530273 -84.47070312 162.86530273 -84.47070312 162.18530273 C-85.13070312 162.18530273 -85.79070312 162.18530273 -86.47070312 162.18530273 C-86.80070312 160.53530273 -87.13070312 158.88530273 -87.47070312 157.18530273 C-88.46070312 156.85530273 -89.45070313 156.52530273 -90.47070312 156.18530273 C-91.75195313 153.56030273 -91.75195313 153.56030273 -92.97070312 150.18530273 C-93.61072266 148.41993164 -93.61072266 148.41993164 -94.26367188 146.61889648 C-94.66199219 145.48581055 -95.0603125 144.35272461 -95.47070312 143.18530273 C-95.79683594 142.3100293 -96.12296875 141.43475586 -96.45898438 140.53295898 C-97.99622442 136.27094274 -98.8246197 132.78621816 -98.47070312 128.18530273 C-99.13070312 128.18530273 -99.79070312 128.18530273 -100.47070312 128.18530273 C-100.52152494 121.88650976 -100.55648785 115.58776993 -100.58056641 109.28881836 C-100.59060728 107.14719669 -100.60424267 105.00558868 -100.62158203 102.86401367 C-100.6459143 99.78097152 -100.65720554 96.69811108 -100.66601562 93.61499023 C-100.6763382 92.66163788 -100.68666077 91.70828552 -100.69729614 90.7260437 C-100.69812553 85.78205469 -100.36923874 81.83247821 -98.47070312 77.18530273 C-98.22138211 75.85559067 -97.9907415 74.52217332 -97.78320312 73.18530273 C-96.34420117 66.35004343 -92.69645038 60.31350409 -89.47070312 54.18530273 C-88.46614992 52.18758582 -87.46461951 50.188333 -86.47070312 48.18530273 C-85.81070313 48.18530273 -85.15070313 48.18530273 -84.47070312 48.18530273 C-84.24382812 47.13342773 -84.01695313 46.08155273 -83.78320312 44.99780273 C-82.63589117 40.97413122 -80.57722109 39.00284228 -77.47070312 36.18530273 C-76.66632813 35.19530273 -75.86195312 34.20530273 -75.03320312 33.18530273 C-72.35854623 30.0539971 -69.67057694 27.75911428 -66.47070312 25.18530273 C-65.60445312 24.28811523 -65.60445312 24.28811523 -64.72070312 23.37280273 C-63.47070312 22.18530273 -63.47070312 22.18530273 -61.47070312 22.18530273 C-60.97570313 20.70030273 -60.97570313 20.70030273 -60.47070312 19.18530273 C-55.21356027 15.18530273 -55.21356027 15.18530273 -51.47070312 15.18530273 C-51.47070312 14.52530273 -51.47070312 13.86530273 -51.47070312 13.18530273 C-49.49070313 12.52530273 -47.51070312 11.86530273 -45.47070312 11.18530273 C-45.47070312 10.52530273 -45.47070312 9.86530273 -45.47070312 9.18530273 C-29.80314154 2.97230418 -16.86332927 -0.0018156 0 0 Z " fill="#F7F7F7" transform="translate(100.470703125,-0.185302734375)"/>
<path d="M0 0 C2.25995961 -0.00217862 4.51942374 -0.02035953 6.77929688 -0.03930664 C15.22894113 -0.07094934 23.2247713 0.41250549 31.52929688 2.18530273 C31.52929688 2.84530273 31.52929688 3.50530273 31.52929688 4.18530273 C32.76679688 4.32967773 34.00429687 4.47405273 35.27929688 4.62280273 C38.09434187 4.97218775 40.79944657 5.3890964 43.52929688 6.18530273 C43.52929688 6.84530273 43.52929688 7.50530273 43.52929688 8.18530273 C45.50929687 8.51530273 47.48929688 8.84530273 49.52929688 9.18530273 C49.52929688 9.84530273 49.52929688 10.50530273 49.52929688 11.18530273 C50.70492187 11.40186523 50.70492187 11.40186523 51.90429688 11.62280273 C54.52929688 12.18530273 54.52929688 12.18530273 56.52929688 13.18530273 C56.52929688 13.84530273 56.52929688 14.50530273 56.52929688 15.18530273 C58.50929687 15.68030273 58.50929687 15.68030273 60.52929688 16.18530273 C60.52929688 16.84530273 60.52929688 17.50530273 60.52929688 18.18530273 C62.50929687 18.84530273 64.48929688 19.50530273 66.52929688 20.18530273 C66.52929688 20.84530273 66.52929688 21.50530273 66.52929688 22.18530273 C67.10679687 22.26780273 67.68429688 22.35030273 68.27929688 22.43530273 C71.20724289 23.41128474 72.58174224 24.82041497 74.52929688 27.18530273 C74.52929688 28.17530273 74.52929688 29.16530273 74.52929688 30.18530273 C75.51929688 30.18530273 76.50929687 30.18530273 77.52929688 30.18530273 C77.52929688 31.17530273 77.52929688 32.16530273 77.52929688 33.18530273 C78.51929688 33.18530273 79.50929687 33.18530273 80.52929688 33.18530273 C80.52929688 34.17530273 80.52929688 35.16530273 80.52929688 36.18530273 C81.51929688 36.51530273 82.50929687 36.84530273 83.52929688 37.18530273 C85.52929688 40.18530273 85.52929688 40.18530273 85.52929688 43.18530273 C86.51929688 43.51530273 87.50929687 43.84530273 88.52929688 44.18530273 C89.69726562 45.70874023 89.69726562 45.70874023 90.71679688 47.56030273 C91.06097656 48.16616211 91.40515625 48.77202148 91.75976562 49.39624023 C92.52929688 51.18530273 92.52929688 51.18530273 92.52929688 54.18530273 C93.18929687 54.18530273 93.84929687 54.18530273 94.52929688 54.18530273 C94.85929688 56.16530273 95.18929687 58.14530273 95.52929688 60.18530273 C96.18929687 60.18530273 96.84929687 60.18530273 97.52929688 60.18530273 C98.51929688 64.64030273 98.51929688 64.64030273 99.52929688 69.18530273 C100.18929687 69.18530273 100.84929687 69.18530273 101.52929688 69.18530273 C101.66207031 69.81178711 101.79484375 70.43827148 101.93164062 71.08374023 C102.10824219 71.90100586 102.28484375 72.71827148 102.46679688 73.56030273 C102.64082031 74.37241211 102.81484375 75.18452148 102.99414062 76.02124023 C103.45260381 78.21476573 103.45260381 78.21476573 104.52929688 80.18530273 C104.62960437 81.79798353 104.66763642 83.41473511 104.67456055 85.03051758 C104.6809404 86.0385141 104.68732025 87.04651062 104.69389343 88.08505249 C104.69556267 89.72409042 104.69556267 89.72409042 104.69726562 91.39624023 C104.70059402 92.51592194 104.70392242 93.63560364 104.70735168 94.78921509 C104.71242181 97.16147449 104.71475998 99.53374104 104.71459961 101.90600586 C104.71678364 105.53828688 104.73493193 109.1702631 104.75390625 112.80249023 C104.75684061 115.10457253 104.75882512 117.40665626 104.75976562 119.70874023 C104.76695114 120.79738373 104.77413666 121.88602722 104.78153992 123.00765991 C104.77846329 124.02196075 104.77538666 125.0362616 104.7722168 126.08129883 C104.77364182 126.97239349 104.77506683 127.86348816 104.77653503 128.78158569 C104.51016569 131.37130138 103.76121469 132.91835072 102.52929688 135.18530273 C102.14639226 137.17640674 101.80325072 139.17630786 101.52929688 141.18530273 C100.86929688 141.18530273 100.20929688 141.18530273 99.52929688 141.18530273 C98.86929688 144.15530273 98.20929688 147.12530273 97.52929688 150.18530273 C96.86929688 150.18530273 96.20929688 150.18530273 95.52929688 150.18530273 C95.19929687 152.16530273 94.86929688 154.14530273 94.52929688 156.18530273 C93.86929688 156.18530273 93.20929688 156.18530273 92.52929688 156.18530273 C92.44679687 157.07217773 92.36429688 157.95905273 92.27929688 158.87280273 C91.42945339 162.62627811 90.18901878 164.44498319 87.52929688 167.18530273 C86.86929688 167.18530273 86.20929688 167.18530273 85.52929688 167.18530273 C85.40554687 167.78342773 85.28179687 168.38155273 85.15429688 168.99780273 C84.52929688 171.18530273 84.52929688 171.18530273 82.52929688 174.18530273 C81.86929688 174.18530273 81.20929688 174.18530273 80.52929688 174.18530273 C80.52929688 175.17530273 80.52929688 176.16530273 80.52929688 177.18530273 C79.53929687 177.18530273 78.54929688 177.18530273 77.52929688 177.18530273 C77.52929688 178.17530273 77.52929688 179.16530273 77.52929688 180.18530273 C76.06825947 181.48400265 74.59888618 182.77713436 73.05664062 183.97827148 C71.42520983 185.21224926 71.42520983 185.21224926 69.77929688 186.99780273 C68.52929688 188.18530273 68.52929688 188.18530273 66.52929688 188.18530273 C66.52929688 188.84530273 66.52929688 189.50530273 66.52929688 190.18530273 C65.55992187 190.45342773 64.59054688 190.72155273 63.59179688 190.99780273 C62.07585937 191.58561523 62.07585937 191.58561523 60.52929688 192.18530273 C60.19929687 193.17530273 59.86929688 194.16530273 59.52929688 195.18530273 C58.53929687 195.18530273 57.54929688 195.18530273 56.52929688 195.18530273 C56.52929688 195.84530273 56.52929688 196.50530273 56.52929688 197.18530273 C53.06429687 198.17530273 53.06429687 198.17530273 49.52929688 199.18530273 C49.52929688 199.84530273 49.52929688 200.50530273 49.52929688 201.18530273 C47.54929688 201.51530273 45.56929687 201.84530273 43.52929688 202.18530273 C43.52929688 202.84530273 43.52929688 203.50530273 43.52929688 204.18530273 C39.40965918 205.47773809 35.86098005 206.44782899 31.52929688 206.18530273 C31.52929688 206.84530273 31.52929688 207.50530273 31.52929688 208.18530273 C22.50824126 209.88224689 13.69939885 210.50246914 4.53588867 210.44604492 C2.46503569 210.43529359 0.39504624 210.44602827 -1.67578125 210.45874023 C-12.35508659 210.47025581 -22.45593281 209.55244416 -32.53320312 205.86889648 C-34.49292762 205.17746143 -36.44849679 204.65925734 -38.47070312 204.18530273 C-38.47070312 203.52530273 -38.47070312 202.86530273 -38.47070312 202.18530273 C-39.92476562 201.99967773 -39.92476562 201.99967773 -41.40820312 201.81030273 C-42.41882812 201.60405273 -43.42945313 201.39780273 -44.47070312 201.18530273 C-44.80070312 200.52530273 -45.13070312 199.86530273 -45.47070312 199.18530273 C-47.44959273 198.45836369 -49.4502487 197.78714022 -51.47070312 197.18530273 C-51.47070312 196.52530273 -51.47070312 195.86530273 -51.47070312 195.18530273 C-52.79070313 194.85530273 -54.11070313 194.52530273 -55.47070312 194.18530273 C-55.47070312 193.52530273 -55.47070312 192.86530273 -55.47070312 192.18530273 C-56.08945312 192.04092773 -56.70820312 191.89655273 -57.34570312 191.74780273 C-59.47070312 191.18530273 -59.47070312 191.18530273 -61.47070312 190.18530273 C-61.47070312 189.52530273 -61.47070312 188.86530273 -61.47070312 188.18530273 C-62.13070312 188.18530273 -62.79070313 188.18530273 -63.47070312 188.18530273 C-63.80070312 184.88530273 -64.13070312 181.58530273 -64.47070312 178.18530273 C-63.41882812 179.13405273 -62.36695313 180.08280273 -61.28320312 181.06030273 C-58.42306418 183.51921978 -56.00868207 184.85856063 -52.47070312 186.18530273 C-51.37290834 186.97815453 -50.29093798 187.79312526 -49.22070312 188.62280273 C-45.3024417 191.54636203 -41.14162171 192.88252952 -36.47070312 194.18530273 C-36.47070312 194.84530273 -36.47070312 195.50530273 -36.47070312 196.18530273 C-35.87902344 196.30647461 -35.28734375 196.42764648 -34.67773438 196.55249023 C-27.98612249 197.97159226 -27.98612249 197.97159226 -24.90820312 199.24780273 C-21.4629482 200.57290078 -18.13962521 200.81219201 -14.47070312 201.18530273 C-14.47070312 201.84530273 -14.47070312 202.50530273 -14.47070312 203.18530273 C4.76266144 203.76637115 21.21623455 202.46501969 39.34179688 195.91967773 C41.52929688 195.18530273 41.52929688 195.18530273 43.52929688 195.18530273 C43.52929688 194.52530273 43.52929688 193.86530273 43.52929688 193.18530273 C44.07457031 192.89397461 44.61984375 192.60264648 45.18164062 192.30249023 C50.13423775 189.61030923 54.84719636 186.71994043 59.48632812 183.51733398 C61.52929688 182.18530273 61.52929688 182.18530273 63.72851562 181.19702148 C65.8799279 180.25373699 65.8799279 180.25373699 66.52929688 177.18530273 C68.72341019 174.86212393 71.01507202 172.66745765 73.34570312 170.48217773 C76.75268459 167.2103375 79.04500534 164.77311294 80.52929688 160.18530273 C81.18929687 159.85530273 81.84929687 159.52530273 82.52929688 159.18530273 C83.65154543 157.30517168 83.65154543 157.30517168 84.65429688 155.12280273 C85.18410156 154.02258789 85.18410156 154.02258789 85.72460938 152.90014648 C85.99015625 152.33424805 86.25570312 151.76834961 86.52929688 151.18530273 C87.18929687 151.18530273 87.84929687 151.18530273 88.52929688 151.18530273 C88.66207031 150.48663086 88.79484375 149.78795898 88.93164062 149.06811523 C89.10824219 148.15803711 89.28484375 147.24795898 89.46679688 146.31030273 C89.64082031 145.40538086 89.81484375 144.50045898 89.99414062 143.56811523 C90.52929688 141.18530273 90.52929688 141.18530273 91.52929688 139.18530273 C92.18929687 139.18530273 92.84929687 139.18530273 93.52929688 139.18530273 C93.85929688 135.88530273 94.18929687 132.58530273 94.52929688 129.18530273 C95.18929687 129.18530273 95.84929687 129.18530273 96.52929688 129.18530273 C96.49835938 127.23624023 96.49835938 127.23624023 96.46679688 125.24780273 C96.46177507 122.03384706 96.62515561 118.9353958 97.02929688 115.74780273 C98.08479668 107.1531593 97.43141596 98.64704545 96.59179688 90.06030273 C96.50478516 89.1231543 96.41777344 88.18600586 96.328125 87.22045898 C95.82218521 81.8612449 95.22633263 76.52296395 94.52929688 71.18530273 C93.86929688 71.18530273 93.20929688 71.18530273 92.52929688 71.18530273 C92.25666016 70.13729492 92.25666016 70.13729492 91.97851562 69.06811523 C91.60146484 67.70299805 91.60146484 67.70299805 91.21679688 66.31030273 C90.97316406 65.40538086 90.72953125 64.50045898 90.47851562 63.56811523 C89.66259835 60.86416954 89.66259835 60.86416954 86.52929688 59.18530273 C85.24804687 57.16186523 85.24804687 57.16186523 84.02929688 54.81030273 C82.76405558 52.38525692 81.56885498 50.23549675 79.87304688 48.08374023 C78.52929688 46.18530273 78.52929688 46.18530273 78.52929688 43.18530273 C77.97242188 42.95842773 77.41554687 42.73155273 76.84179688 42.49780273 C73.87074503 40.81153006 71.88407562 38.65494874 69.52929688 36.18530273 C68.68367187 35.36030273 67.83804688 34.53530273 66.96679688 33.68530273 C64.52929688 31.18530273 64.52929688 31.18530273 62.59179688 28.56030273 C60.097507 25.68809015 57.99991155 24.76285486 54.52929688 23.18530273 C52.56491824 22.13402148 50.60698041 21.07065068 48.65429688 19.99780273 C47.6875 19.46799805 46.72070312 18.93819336 45.72460938 18.39233398 C45.00015625 17.99401367 44.27570313 17.59569336 43.52929688 17.18530273 C43.52929688 16.52530273 43.52929688 15.86530273 43.52929688 15.18530273 C42.57023437 15.03061523 42.57023437 15.03061523 41.59179688 14.87280273 C39.11956052 14.3178109 36.90849996 13.64718632 34.52929688 12.81030273 C25.82495054 9.85082498 16.7245006 7.70578596 7.52929688 7.18530273 C6.66433594 7.13245117 5.799375 7.07959961 4.90820312 7.02514648 C-4.10561835 6.74384676 -12.69485712 8.31014146 -21.47070312 10.18530273 C-22.37691406 10.37866211 -23.283125 10.57202148 -24.21679688 10.77124023 C-33.3670439 13.14752698 -42.29243077 18.01175141 -50.32617188 22.93530273 C-52.47070312 24.18530273 -52.47070312 24.18530273 -54.47070312 24.18530273 C-54.96570312 25.67030273 -54.96570312 25.67030273 -55.47070312 27.18530273 C-57.09818337 28.56619506 -58.77626966 29.8874388 -60.47070312 31.18530273 C-70.41863644 39.09596866 -77.91446842 48.26899658 -82.47070312 60.18530273 C-83.13070312 60.18530273 -83.79070312 60.18530273 -84.47070312 60.18530273 C-84.69757813 61.29905273 -84.92445312 62.41280273 -85.15820312 63.56030273 C-86.23524038 67.93818798 -88.09963068 71.65172183 -90.25195312 75.59545898 C-98.45872783 93.03485524 -96.96381448 118.41976941 -90.85742188 136.23217773 C-90.4642981 137.27390137 -90.4642981 137.27390137 -90.06323242 138.33666992 C-89.47070312 140.18530273 -89.47070312 140.18530273 -89.47070312 143.18530273 C-88.81070313 143.18530273 -88.15070313 143.18530273 -87.47070312 143.18530273 C-87.26445313 143.96905273 -87.05820313 144.75280273 -86.84570312 145.56030273 C-85.26789533 149.71997782 -83.10978113 153.18281521 -80.71289062 156.91577148 C-79.47070312 159.18530273 -79.47070312 159.18530273 -79.47070312 162.18530273 C-78.81070313 162.18530273 -78.15070313 162.18530273 -77.47070312 162.18530273 C-75.29866313 165.14717546 -73.63508316 167.69216264 -72.47070312 171.18530273 C-71.81070313 171.18530273 -71.15070313 171.18530273 -70.47070312 171.18530273 C-68.18056659 174.62050753 -68.29227339 176.17063373 -68.47070312 180.18530273 C-69.79070312 180.18530273 -71.11070313 180.18530273 -72.47070312 180.18530273 C-77.47070312 175.07166637 -77.47070312 175.07166637 -77.47070312 171.18530273 C-78.36789063 170.84499023 -78.36789063 170.84499023 -79.28320312 170.49780273 C-82.06418716 168.82921231 -83.03489472 167.05691954 -84.47070312 164.18530273 C-84.47070312 163.52530273 -84.47070312 162.86530273 -84.47070312 162.18530273 C-85.13070312 162.18530273 -85.79070312 162.18530273 -86.47070312 162.18530273 C-86.80070312 160.53530273 -87.13070312 158.88530273 -87.47070312 157.18530273 C-88.46070312 156.85530273 -89.45070313 156.52530273 -90.47070312 156.18530273 C-91.75195313 153.56030273 -91.75195313 153.56030273 -92.97070312 150.18530273 C-93.61072266 148.41993164 -93.61072266 148.41993164 -94.26367188 146.61889648 C-94.66199219 145.48581055 -95.0603125 144.35272461 -95.47070312 143.18530273 C-95.79683594 142.3100293 -96.12296875 141.43475586 -96.45898438 140.53295898 C-97.99622442 136.27094274 -98.8246197 132.78621816 -98.47070312 128.18530273 C-99.13070312 128.18530273 -99.79070312 128.18530273 -100.47070312 128.18530273 C-100.52152494 121.88650976 -100.55648785 115.58776993 -100.58056641 109.28881836 C-100.59060728 107.14719669 -100.60424267 105.00558868 -100.62158203 102.86401367 C-100.6459143 99.78097152 -100.65720554 96.69811108 -100.66601562 93.61499023 C-100.6763382 92.66163788 -100.68666077 91.70828552 -100.69729614 90.7260437 C-100.69812553 85.78205469 -100.36923874 81.83247821 -98.47070312 77.18530273 C-98.22138211 75.85559067 -97.9907415 74.52217332 -97.78320312 73.18530273 C-96.34420117 66.35004343 -92.69645038 60.31350409 -89.47070312 54.18530273 C-88.46614992 52.18758582 -87.46461951 50.188333 -86.47070312 48.18530273 C-85.81070313 48.18530273 -85.15070313 48.18530273 -84.47070312 48.18530273 C-84.24382812 47.13342773 -84.01695313 46.08155273 -83.78320312 44.99780273 C-82.63589117 40.97413122 -80.57722109 39.00284228 -77.47070312 36.18530273 C-76.66632813 35.19530273 -75.86195312 34.20530273 -75.03320312 33.18530273 C-72.35854623 30.0539971 -69.67057694 27.75911428 -66.47070312 25.18530273 C-65.60445312 24.28811523 -65.60445312 24.28811523 -64.72070312 23.37280273 C-63.47070312 22.18530273 -63.47070312 22.18530273 -61.47070312 22.18530273 C-60.97570313 20.70030273 -60.97570313 20.70030273 -60.47070312 19.18530273 C-55.21356027 15.18530273 -55.21356027 15.18530273 -51.47070312 15.18530273 C-51.47070312 14.52530273 -51.47070312 13.86530273 -51.47070312 13.18530273 C-49.49070313 12.52530273 -47.51070312 11.86530273 -45.47070312 11.18530273 C-45.47070312 10.52530273 -45.47070312 9.86530273 -45.47070312 9.18530273 C-29.80314154 2.97230418 -16.86332927 -0.0018156 0 0 Z " fill="#AE729D" transform="translate(100.470703125,-0.185302734375)"/>
<path d="M0 0 C5.28 0 10.56 0 16 0 C16 1.65 16 3.3 16 5 C16.99 5.33 17.98 5.66 19 6 C19 9.3 19 12.6 19 16 C20.32 15.67 21.64 15.34 23 15 C23.33 11.7 23.66 8.4 24 5 C30.93359375 4.90234375 30.93359375 4.90234375 33 5 C33.495 5.495 33.495 5.495 34 6 C35.87321948 6.16053815 35.87321948 6.16053815 38 6.125 C38.721875 6.12757812 39.44375 6.13015625 40.1875 6.1328125 C42.02089415 6.19695276 42.02089415 6.19695276 43 5 C44.66617115 4.95936168 46.33388095 4.957279 48 5 C48 5.66 48 6.32 48 7 C48.66 7 49.32 7 50 7 C50.495 7.99 50.495 7.99 51 9 C51.54817383 8.51104248 52.09634766 8.02208496 52.66113281 7.51831055 C55.50230107 5.67392376 57.06224588 5.65103743 60.421875 5.70703125 C61.95908203 5.7215332 61.95908203 5.7215332 63.52734375 5.73632812 C65.12255859 5.7740332 65.12255859 5.7740332 66.75 5.8125 C67.82894531 5.82603516 68.90789062 5.83957031 70.01953125 5.85351562 C72.6801942 5.88883416 75.33984296 5.93815801 78 6 C78 6.66 78 7.32 78 8 C80.475 7.505 80.475 7.505 83 7 C83 6.34 83 5.68 83 5 C86.63 5 90.26 5 94 5 C94.33 3.68 94.66 2.36 95 1 C96.9375 0.4375 96.9375 0.4375 99 0 C100 1 100 1 100.11352539 2.85766602 C100.10567017 4.04380493 100.10567017 4.04380493 100.09765625 5.25390625 C100.09282227 6.53491211 100.09282227 6.53491211 100.08789062 7.84179688 C100.07532227 9.18854492 100.07532227 9.18854492 100.0625 10.5625 C100.05798828 11.46419922 100.05347656 12.36589844 100.04882812 13.29492188 C100.03700225 15.53001314 100.0205222 17.76497437 100 20 C98.68 20 97.36 20 96 20 C95.505 21.485 95.505 21.485 95 23 C90.86396663 26.25869296 87.08990966 26.56865172 82 27 C81.505 28.485 81.505 28.485 81 30 C80.13048706 29.99214478 80.13048706 29.99214478 79.2434082 29.98413086 C76.5997833 29.96325666 73.95617579 29.95030673 71.3125 29.9375 C70.40048828 29.92912109 69.48847656 29.92074219 68.54882812 29.91210938 C67.21948242 29.90727539 67.21948242 29.90727539 65.86328125 29.90234375 C65.05157471 29.89710693 64.23986816 29.89187012 63.40356445 29.88647461 C60.84910079 30.00712729 58.49799626 30.46829695 56 31 C51.03057068 31.25255695 46.1726959 31.17590439 41.25 30.4375 C37.43098268 29.87085719 33.84150035 30.18255384 30 30.5 C21.86705563 31.14703183 14.13608694 30.64800692 6 30 C6 21.42 6 12.84 6 4 C4.02 4 2.04 4 0 4 C0 2.68 0 1.36 0 0 Z " fill="#EAECEF" transform="translate(76,91)"/>
<path d="M0 0 C2.9200524 2.19655727 3.0031293 3.01590728 3.75 6.8125 C4.09077726 10.36444763 3.68431513 13.49288494 3 17 C3.33 17.33 3.66 17.66 4 18 C4.36090226 25.45864662 4.36090226 25.45864662 2 29 C1.75780685 31.97449608 1.75780685 31.97449608 1.875 35.1875 C1.89304688 36.27417969 1.91109375 37.36085937 1.9296875 38.48046875 C1.95289063 39.31191406 1.97609375 40.14335938 2 41 C-5.75 40.25 -5.75 40.25 -8 38 C-10.78282531 37.16247575 -10.78282531 37.16247575 -14 38 C-16.05219223 39.91566385 -17.75435959 41.94306732 -19.484375 44.15234375 C-21.7410063 46.90334016 -22.82899603 46.98134502 -26.4375 47.375 C-30 47 -30 47 -31.9375 44.9375 C-33.19260598 41.46750111 -33.21548663 38.66327268 -33 35 C-31.68 35 -30.36 35 -29 35 C-28.731875 35.969375 -28.46375 36.93875 -28.1875 37.9375 C-27.795625 38.948125 -27.40375 39.95875 -27 41 C-25.515 41.495 -25.515 41.495 -24 42 C-22.79371992 39.66785852 -21.8345262 37.50357861 -21 35 C-22.5778125 35.0309375 -22.5778125 35.0309375 -24.1875 35.0625 C-27.32704904 35.01103198 -29.96883396 34.73482813 -33 34 C-33 33.34 -33 32.68 -33 32 C-33.99 32 -34.98 32 -36 32 C-39.1782099 28.7309841 -40 27.67834007 -40 23 C-40.99 23 -41.98 23 -43 23 C-43 22.01 -43 21.02 -43 20 C-43.66 20 -44.32 20 -45 20 C-46.67810568 14.96568295 -47.11866 9.80159982 -45.1171875 4.7890625 C-43.56931537 2.51823213 -42.41118923 1.3438707 -40 0 C-33.63953401 -1.01225461 -27.87935857 -0.70428597 -22 2 C-22 2.66 -22 3.32 -22 4 C-19.16984523 2.88509055 -16.50707068 1.73903742 -13.8125 0.3125 C-9.33391748 -1.62657859 -4.647383 -1.28371768 0 0 Z " fill="#636AEA" transform="translate(65,81)"/>
<path d="M0 0 C2.92471884 2.18865374 3.00384423 3.0195415 3.75 6.8125 C4.09077726 10.36444763 3.68431513 13.49288494 3 17 C3.33 17.33 3.66 17.66 4 18 C4.36090226 25.45864662 4.36090226 25.45864662 2 29 C1.75780685 31.97449608 1.75780685 31.97449608 1.875 35.1875 C1.89304687 36.27417969 1.91109375 37.36085937 1.9296875 38.48046875 C1.95289062 39.31191406 1.97609375 40.14335938 2 41 C-5.75 40.25 -5.75 40.25 -8 38 C-12.05261287 37.65509678 -13.54754176 37.69836118 -17 40 C-19.1875 39.625 -19.1875 39.625 -21 39 C-20.79503906 37.96101563 -20.59007812 36.92203125 -20.37890625 35.8515625 C-18.90291748 28.25190693 -17.53929651 20.73611542 -17 13 C-16.34 13.309375 -15.68 13.61875 -15 13.9375 C-11.29523985 15.24960255 -7.90736009 15.60264135 -4 16 C-3.67 14.68 -3.34 13.36 -3 12 C-4.918125 11.814375 -4.918125 11.814375 -6.875 11.625 C-10.75 11.25 -10.75 11.25 -13 9 C-13.625 6.875 -13.625 6.875 -14 5 C-14 5.66 -14 6.32 -14 7 C-15.65 6.67 -17.3 6.34 -19 6 C-17.5225155 2.88086605 -16.51435757 1.27599675 -13.4375 -0.375 C-8.87993416 -1.20364833 -4.50560779 -1.15548289 0 0 Z " fill="#F97C36" transform="translate(65,81)"/>
<path d="M0 0 C5.28 0 10.56 0 16 0 C16 1.65 16 3.3 16 5 C16.99 5.33 17.98 5.66 19 6 C19 9.3 19 12.6 19 16 C20.32 15.67 21.64 15.34 23 15 C23.33 12.03 23.66 9.06 24 6 C24.99 6 25.98 6 27 6 C27.08133791 7.91595968 27.13934367 9.83291932 27.1875 11.75 C27.23970703 13.35101563 27.23970703 13.35101563 27.29296875 14.984375 C26.96508332 18.35940907 26.11142557 19.45077228 24 22 C24 22.99 24 23.98 24 25 C24.845625 24.814375 25.69125 24.62875 26.5625 24.4375 C30.2773282 23.96470368 33.32974273 24.33935369 37 25 C37 26.65 37 28.3 37 30 C26.46087814 30.98425707 16.55210977 30.84043352 6 30 C6 21.42 6 12.84 6 4 C4.02 4 2.04 4 0 4 C0 2.68 0 1.36 0 0 Z " fill="#E9DFEE" transform="translate(76,91)"/>
<path d="M0 0 C0.99 0.33 1.98 0.66 3 1 C3 7.27 3 13.54 3 20 C1.68 20 0.36 20 -1 20 C-1.33 20.99 -1.66 21.98 -2 23 C-6.13603337 26.25869296 -9.91009034 26.56865172 -15 27 C-15.33 27.99 -15.66 28.98 -16 30 C-18.97 30 -21.94 30 -25 30 C-25 29.34 -25 28.68 -25 28 C-25.99 28 -26.98 28 -28 28 C-28 27.34 -28 26.68 -28 26 C-24.04 25.505 -24.04 25.505 -20 25 C-20 25.99 -20 26.98 -20 28 C-19.34 28 -18.68 28 -18 28 C-18 26.68 -18 25.36 -18 24 C-17.34 24 -16.68 24 -16 24 C-16 23.34 -16 22.68 -16 22 C-13.03 22 -10.06 22 -7 22 C-7 21.34 -7 20.68 -7 20 C-9.31 20 -11.62 20 -14 20 C-14.33 18.35 -14.66 16.7 -15 15 C-15.66 15 -16.32 15 -17 15 C-16.36738317 11.30973516 -15.42909641 8.57274103 -14 5 C-10.37 5 -6.74 5 -3 5 C-2.67 3.68 -2.34 2.36 -2 1 C-1.34 0.67 -0.68 0.34 0 0 Z " fill="#7D9BBC" transform="translate(173,91)"/>
<path d="M0 0 C1.2065625 0.0309375 1.2065625 0.0309375 2.4375 0.0625 C2.4375 0.7225 2.4375 1.3825 2.4375 2.0625 C3.0975 2.0625 3.7575 2.0625 4.4375 2.0625 C4.7675 2.7225 5.0975 3.3825 5.4375 4.0625 C5.98921875 3.57136719 6.5409375 3.08023438 7.109375 2.57421875 C9.90120069 0.76140576 11.39935741 0.7452049 14.6875 0.875 C16.255 0.936875 17.8225 0.99875 19.4375 1.0625 C19.4375 5.6825 19.4375 10.3025 19.4375 15.0625 C11.0390625 15.2578125 11.0390625 15.2578125 8.4375 15.0625 C7.7775 14.4025 7.1175 13.7425 6.4375 13.0625 C5.7775 13.7225 5.1175 14.3825 4.4375 15.0625 C3.1175 15.0625 1.7975 15.0625 0.4375 15.0625 C0.4375 11.7625 0.4375 8.4625 0.4375 5.0625 C-0.8825 5.0625 -2.2025 5.0625 -3.5625 5.0625 C-3.5625 8.0325 -3.5625 11.0025 -3.5625 14.0625 C-4.8825 14.3925 -6.2025 14.7225 -7.5625 15.0625 C-7.5625 11.4325 -7.5625 7.8025 -7.5625 4.0625 C-8.8825 4.3925 -10.2025 4.7225 -11.5625 5.0625 C-11.8925 8.3625 -12.2225 11.6625 -12.5625 15.0625 C-13.5525 15.0625 -14.5425 15.0625 -15.5625 15.0625 C-15.5625 10.4425 -15.5625 5.8225 -15.5625 1.0625 C-12.47005208 1.09505208 -9.37760417 1.12760417 -6.28515625 1.16015625 C-3.15356712 1.04783239 -3.07727333 0.07505545 0 0 Z " fill="#4D78A4" transform="translate(121.5625,95.9375)"/>
<path d="M0 0 C2.90234375 1.03515625 2.90234375 1.03515625 5 2 C5 2.66 5 3.32 5 4 C5.61875 4.061875 6.2375 4.12375 6.875 4.1875 C9 5 9 5 10.25 7.5625 C10.4975 8.366875 10.745 9.17125 11 10 C9.88625 9.773125 8.7725 9.54625 7.625 9.3125 C2.36056583 8.65678756 -2.18073154 9.88088904 -7 12 C-9.44210522 14.01917822 -9.44210522 14.01917822 -11 16 C-11.66 16 -12.32 16 -13 16 C-13.33 14.02 -13.66 12.04 -14 10 C-14.99 10.495 -14.99 10.495 -16 11 C-16 13.97 -16 16.94 -16 20 C-16.66 20 -17.32 20 -18 20 C-19.67810568 14.96568295 -20.11866 9.80159982 -18.1171875 4.7890625 C-13.72889935 -1.64884526 -7.11496802 -1.00624704 0 0 Z " fill="#3CAEF1" transform="translate(38,81)"/>
<path d="M0 0 C1.32 0.33 2.64 0.66 4 1 C3.01 1 2.02 1 1 1 C1.66423207 3.03883888 1.66423207 3.03883888 3 5 C5.18541552 5.6993514 5.18541552 5.6993514 7.625 5.75 C8.85089844 5.83507812 8.85089844 5.83507812 10.1015625 5.921875 C10.72804687 5.94765625 11.35453125 5.9734375 12 6 C11.34 7.65 10.68 9.3 10 11 C4.26685644 11.29654191 1.09670254 10.91240145 -4 8 C-4.66 8 -5.32 8 -6 8 C-6.66 9.32 -7.32 10.64 -8 12 C-8.66 12 -9.32 12 -10 12 C-10.66 14.64 -11.32 17.28 -12 20 C-14.0625 18.25 -14.0625 18.25 -16 16 C-15.75 13.75 -15.75 13.75 -15 12 C-17.52363988 12.62533375 -17.52363988 12.62533375 -20 14 C-20.89386164 16.54775306 -20.89386164 16.54775306 -21 19 C-21.99 19 -22.98 19 -24 19 C-23.45057083 14.46720935 -21.99267828 10.46822716 -19 7 C-14.90682534 4.22107485 -10.91402154 2.56218808 -5.9375 3.25 C-4.968125 3.4975 -3.99875 3.745 -3 4 C-3 3.01 -3 2.02 -3 1 C-2.01 1.33 -1.02 1.66 0 2 C0 1.34 0 0.68 0 0 Z " fill="#9861DA" transform="translate(51,86)"/>
<path d="M0 0 C2.475 0.99 2.475 0.99 5 2 C4.85860519 4.25028329 4.71171997 6.50022206 4.5625 8.75 C4.48128906 10.00296875 4.40007813 11.2559375 4.31640625 12.546875 C4.07484478 15.18317553 3.75716066 17.48037294 3 20 C4.093125 19.979375 5.18625 19.95875 6.3125 19.9375 C10 20 10 20 13 21 C13 19.02 13 17.04 13 15 C13.66 14.67 14.32 14.34 15 14 C14.67 16.64 14.34 19.28 14 22 C14.99 22 15.98 22 17 22 C17.33 20.68 17.66 19.36 18 18 C19.60725635 21.21451269 19.05748185 24.43612536 19 28 C11.25 27.25 11.25 27.25 9 25 C4.94738713 24.65509678 3.45245824 24.69836118 0 27 C-2.1875 26.625 -2.1875 26.625 -4 26 C-3.69255859 24.44152344 -3.69255859 24.44152344 -3.37890625 22.8515625 C-1.90291748 15.25190693 -0.53929651 7.73611542 0 0 Z " fill="#C445AD" transform="translate(48,94)"/>
<path d="M0 0 C5.484375 -0.365625 5.484375 -0.365625 7.71875 1.21875 C9.43533674 3.60522425 9.14346129 4.82737916 8.6875 7.6875 C8.50767578 8.89986328 8.50767578 8.89986328 8.32421875 10.13671875 C8.21722656 10.75160156 8.11023437 11.36648437 8 12 C7.01 12.33 6.02 12.66 5 13 C4.67 13.99 4.34 14.98 4 16 C3.01 16.680625 3.01 16.680625 2 17.375 C-0.52195876 19.4240915 -0.65862714 20.84230107 -1 24 C-0.01 24 0.98 24 2 24 C2.33 23.01 2.66 22.02 3 21 C6.44444444 18 6.44444444 18 9 18 C9 19.65 9 21.3 9 23 C8.34 23.33 7.68 23.66 7 24 C6.34227572 27.02934491 6.34227572 27.02934491 6 30 C2.7 29.67 -0.6 29.34 -4 29 C-3.85941524 26.54126232 -3.71277001 24.08314825 -3.5625 21.625 C-3.50352539 20.57699219 -3.50352539 20.57699219 -3.44335938 19.5078125 C-3.11328125 14.2265625 -3.11328125 14.2265625 -2 12 C0.64 12 3.28 12 6 12 C6.33 10.68 6.66 9.36 7 8 C5.081875 7.814375 5.081875 7.814375 3.125 7.625 C-0.75 7.25 -0.75 7.25 -3 5 C-3 4.01 -3 3.02 -3 2 C-2.01 2 -1.02 2 0 2 C0 1.34 0 0.68 0 0 Z " fill="#DB8E9B" transform="translate(55,85)"/>
<path d="M0 0 C1.13211906 3.52214817 1.13211906 3.52214817 0.54443359 5.64770508 C-0.7579552 11.2748423 -0.30850429 17.4153445 -0.35009766 23.17602539 C-0.36646988 24.8272123 -0.39350367 26.47833412 -0.43212891 28.12915039 C-0.82362277 44.99913175 2.79686069 59.4493268 10.8125 74.375 C12 77 12 77 11 80 C10.65066406 79.36191406 10.30132812 78.72382813 9.94140625 78.06640625 C9.48636719 77.24011719 9.03132813 76.41382813 8.5625 75.5625 C8.11003906 74.73878906 7.65757813 73.91507812 7.19140625 73.06640625 C6.16337603 71.07691202 6.16337603 71.07691202 5 70 C4.95936168 68.33382885 4.957279 66.66611905 5 65 C4.34 65 3.68 65 3 65 C2.80664062 64.28714844 2.61328125 63.57429688 2.4140625 62.83984375 C2.02347656 61.40318359 2.02347656 61.40318359 1.625 59.9375 C1.24214844 58.52791016 1.24214844 58.52791016 0.8515625 57.08984375 C0.26205156 54.95083845 -0.36564279 52.82212782 -1.0234375 50.703125 C-5.32427724 34.39434072 -5.07137935 16.09518278 0 0 Z " fill="#54D9FB" transform="translate(8,78)"/>
<path d="M0 0 C0.99 0.33 1.98 0.66 3 1 C3.10477512 6.78591511 2.99250545 12.29309366 2 18 C-1.3 18 -4.6 18 -8 18 C-7.52343588 16.20763933 -7.04366502 14.41613103 -6.5625 12.625 C-6.29566406 11.62726563 -6.02882812 10.62953125 -5.75390625 9.6015625 C-5 7 -5 7 -4 5 C-3.34 5 -2.68 5 -2 5 C-1.34 3.35 -0.68 1.7 0 0 Z " fill="#EDE3F1" transform="translate(45,93)"/>
<path d="M0 0 C0.79664063 0.10828125 1.59328125 0.2165625 2.4140625 0.328125 C4.375 0.75 4.375 0.75 5.375 1.75 C5.41580783 3.74958364 5.41754356 5.75045254 5.375 7.75 C2.405 7.75 -0.565 7.75 -3.625 7.75 C-3.625 8.74 -3.625 9.73 -3.625 10.75 C-0.985 10.75 1.655 10.75 4.375 10.75 C4.045 11.74 3.715 12.73 3.375 13.75 C1.065 13.75 -1.245 13.75 -3.625 13.75 C-4.285 12.43 -4.945 11.11 -5.625 9.75 C-6.285 9.75 -6.945 9.75 -7.625 9.75 C-7.9915923 3.27353597 -7.9915923 3.27353597 -6.40234375 1.00390625 C-4.03858965 -0.66370928 -2.82362114 -0.4230833 0 0 Z " fill="#336398" transform="translate(184.625,97.25)"/>
<path d="M0 0 C3.96 0 7.92 0 12 0 C13.38226016 2.76452033 13.09525387 5.0461363 13.0625 8.125 C13.05347656 9.22070312 13.04445312 10.31640625 13.03515625 11.4453125 C13.02355469 12.28835937 13.01195312 13.13140625 13 14 C12.01 14 11.02 14 10 14 C9.67 10.7 9.34 7.4 9 4 C7.68 3.67 6.36 3.34 5 3 C5 6.3 5 9.6 5 13 C3.68 13.33 2.36 13.66 1 14 C0 13 0 13 -0.09765625 10.05859375 C-0.08605469 8.86363281 -0.07445312 7.66867188 -0.0625 6.4375 C-0.05347656 5.23996094 -0.04445312 4.04242188 -0.03515625 2.80859375 C-0.02355469 1.88175781 -0.01195312 0.95492187 0 0 Z " fill="#4973A2" transform="translate(142,97)"/>
<path d="M0 0 C1.32 0 2.64 0 4 0 C4 3.3 4 6.6 4 10 C5.32 9.67 6.64 9.34 8 9 C8.33 6.03 8.66 3.06 9 0 C9.99 0 10.98 0 12 0 C12.02694851 1.95825873 12.04637218 3.91662226 12.0625 5.875 C12.07410156 6.96554688 12.08570312 8.05609375 12.09765625 9.1796875 C12 12 12 12 11 14 C7.85940555 14.83749185 5.78893001 15.27719163 2.6875 14.1875 C1 13 1 13 0 11 C-0.07033769 9.12620395 -0.0843022 7.24998898 -0.0625 5.375 C-0.05347656 4.37210937 -0.04445313 3.36921875 -0.03515625 2.3359375 C-0.02355469 1.56507812 -0.01195313 0.79421875 0 0 Z " fill="#965AC6" transform="translate(91,97)"/>
<path d="M0 0 C5.28 0 10.56 0 16 0 C16 1.32 16 2.64 16 4 C13.69 4 11.38 4 9 4 C9 9.28 9 14.56 9 20 C8.01 20 7.02 20 6 20 C6 14.72 6 9.44 6 4 C4.02 4 2.04 4 0 4 C0 2.68 0 1.36 0 0 Z " fill="#9547B5" transform="translate(76,91)"/>
<path d="M0 0 C-23.52536772 10.51133452 -47.21070195 11.41201243 -72 5 C-72 4.34 -72 3.68 -72 3 C-72.99 2.67 -73.98 2.34 -75 2 C-69.31900211 2.9212429 -63.66064984 3.96254994 -58 5 C-58 5.66 -58 6.32 -58 7 C-38.77782666 7.58073031 -22.25376887 6.38647754 -4.1875 -0.36328125 C-2 -1 -2 -1 0 0 Z " fill="#AD7CDF" transform="translate(144,196)"/>
<path d="M0 0 C7.45666876 11.18500314 3.43124963 36.33348958 1 49 C-0.27769175 54.04802321 -2.02646525 58.69320493 -4.125 63.4375 C-4.40214844 64.07365234 -4.67929688 64.70980469 -4.96484375 65.36523438 C-5.63931586 66.9118687 -6.31909495 68.45618697 -7 70 C-8.15957207 66.52128379 -7.77456651 65.65780355 -6.5625 62.3125 C-6.13130859 61.10013672 -6.13130859 61.10013672 -5.69140625 59.86328125 C-5.46324219 59.24839844 -5.23507813 58.63351563 -5 58 C-4.34 58 -3.68 58 -3 58 C-2.67 54.7 -2.34 51.4 -2 48 C-1.34 48 -0.68 48 0 48 C-0.020625 46.700625 -0.04125 45.40125 -0.0625 44.0625 C-0.06752181 40.84854433 0.09585874 37.75009307 0.5 34.5625 C1.43391978 26.86433266 1.00073028 19.38838247 0.22265625 11.6953125 C-0.10045203 7.78400172 -0.06430627 3.92268226 0 0 Z " fill="#FAAC6B" transform="translate(197,81)"/>
<path d="M0 0 C2.64 0 5.28 0 8 0 C8 4.62 8 9.24 8 14 C4.37 14 0.74 14 -3 14 C-4.28317892 10.15046324 -4.06643637 7.05261865 -4 3 C-3.34 2.67 -2.68 2.34 -2 2 C-1.67 4.31 -1.34 6.62 -1 9 C0.32 9.33 1.64 9.66 3 10 C3.33 8.02 3.66 6.04 4 4 C1.525 3.01 1.525 3.01 -1 2 C-0.67 1.34 -0.34 0.68 0 0 Z " fill="#2B5E95" transform="translate(133,97)"/>
<path d="M0 0 C2.0625 1.5 2.0625 1.5 3 4 C2.89898315 10.16202764 1.31538549 13.86649989 -2 19 C-2.66 19 -3.32 19 -4 19 C-4.144375 19.78375 -4.28875 20.5675 -4.4375 21.375 C-5 24 -5 24 -6 26 C-6.99 26 -7.98 26 -9 26 C-9.3125 23.75 -9.3125 23.75 -9 21 C-6.6875 18.875 -6.6875 18.875 -4 17 C-1.93615429 15.30824186 -1.10198394 14.43674037 -0.48828125 11.80859375 C-0.43027344 11.02613281 -0.37226562 10.24367188 -0.3125 9.4375 C-0.24675781 8.65246094 -0.18101563 7.86742188 -0.11328125 7.05859375 C-0.0389187 5.70724678 0 4.35339145 0 3 C-3.96 3 -7.92 3 -12 3 C-12 3.66 -12 4.32 -12 5 C-13.65 4.67 -15.3 4.34 -17 4 C-16.67 3.34 -16.34 2.68 -16 2 C-14.1875 1.4375 -14.1875 1.4375 -12 1 C-11.4225 0.814375 -10.845 0.62875 -10.25 0.4375 C-6.67815165 -0.25702607 -3.65443362 -0.29003441 0 0 Z " fill="#EB4F58" transform="translate(63,83)"/>
<path d="M0 0 C2.475 0.99 2.475 0.99 5 2 C4.22095672 16.78132118 4.22095672 16.78132118 2 23 C1.01 22.67 0.02 22.34 -1 22 C-1.11459026 14.58982977 -0.91160286 7.35793733 0 0 Z " fill="#F44D51" transform="translate(48,94)"/>
<path d="M0 0 C0.79921875 0.01804687 1.5984375 0.03609375 2.421875 0.0546875 C3.02515625 0.07789062 3.6284375 0.10109375 4.25 0.125 C4.25 0.785 4.25 1.445 4.25 2.125 C5.24 2.455 6.23 2.785 7.25 3.125 C4.2350034 5.13499773 1.58678343 6.11943731 -1.8125 7.24609375 C-3.9609893 8.22071087 -5.11407168 9.45653901 -6.75 11.125 C-7.41 11.125 -8.07 11.125 -8.75 11.125 C-8.75 8.155 -8.75 5.185 -8.75 2.125 C-5.00631258 0.25315629 -3.9099209 -0.11499767 0 0 Z " fill="#E5E9F5" transform="translate(33.75,85.875)"/>
<path d="M0 0 C0.33 0 0.66 0 1 0 C1 2.64 1 5.28 1 8 C1.886875 7.195625 2.77375 6.39125 3.6875 5.5625 C6.38287032 3.2960841 8.42063478 2.31582634 12 2 C11.67 2.66 11.34 3.32 11 4 C10.01 4.33 9.02 4.66 8 5 C4.98928321 9.5616921 3.29513786 13.71152042 2 19 C1.67 17.68 1.34 16.36 1 15 C0.01 15 -0.98 15 -2 15 C-2.8723412 12.00519083 -3.10829766 9.36424089 -3.0625 6.25 C-3.05347656 5.45078125 -3.04445313 4.6515625 -3.03515625 3.828125 C-3.02355469 3.22484375 -3.01195313 2.6215625 -3 2 C-2.34 2 -1.68 2 -1 2 C-0.67 1.34 -0.34 0.68 0 0 Z " fill="#BB67E9" transform="translate(24,89)"/>
<path d="M0 0 C0.66 0 1.32 0 2 0 C2 0.66 2 1.32 2 2 C2.66 2 3.32 2 4 2 C5.078125 3.46875 5.078125 3.46875 6.25 5.5 C8.10000441 8.57056945 10.01654067 11.53705719 12.125 14.4375 C12.84042969 15.42556641 12.84042969 15.42556641 13.5703125 16.43359375 C15.01998005 18.27750506 15.01998005 18.27750506 18 19 C19.1875 21.0625 19.1875 21.0625 20 23 C19.01 22.67 18.02 22.34 17 22 C17.33 23.98 17.66 25.96 18 28 C12.33846154 26.52307692 12.33846154 26.52307692 10.625 23.875 C10.41875 23.25625 10.2125 22.6375 10 22 C10.66 22 11.32 22 12 22 C11.34 19.03 10.68 16.06 10 13 C9.34 13 8.68 13 8 13 C6.7109375 11.5390625 6.7109375 11.5390625 5.375 9.625 C4.92898437 8.99851563 4.48296875 8.37203125 4.0234375 7.7265625 C3 6 3 6 3 4 C2.34 4 1.68 4 1 4 C0.67 2.68 0.34 1.36 0 0 Z " fill="#34C5FB" transform="translate(20,158)"/>
<path d="M0 0 C5.45769811 -0.11138159 10.61509359 0.08342019 16 1 C16 2.65 16 4.3 16 6 C13.5211787 6.19389096 11.04219069 6.38040123 8.5625 6.5625 C7.50192383 6.64661133 7.50192383 6.64661133 6.41992188 6.73242188 C4.61572163 6.86190993 2.80768048 6.93521608 1 7 C0 6 0 6 -0.0625 2.9375 C-0.041875 1.968125 -0.02125 0.99875 0 0 Z " fill="#C8C7C7" transform="translate(97,115)"/>
<path d="M0 0 C0.99 0.33 1.98 0.66 3 1 C3 7.27 3 13.54 3 20 C1.68 20 0.36 20 -1 20 C-1.02888514 16.85418577 -1.04675923 13.70840531 -1.0625 10.5625 C-1.07087891 9.66466797 -1.07925781 8.76683594 -1.08789062 7.84179688 C-1.09111328 6.98779297 -1.09433594 6.13378906 -1.09765625 5.25390625 C-1.10551147 4.06776733 -1.10551147 4.06776733 -1.11352539 2.85766602 C-1 1 -1 1 0 0 Z " fill="#24578F" transform="translate(173,91)"/>
<path d="M0 0 C-0.33 1.65 -0.66 3.3 -1 5 C-1.99 5 -2.98 5 -4 5 C-4 5.66 -4 6.32 -4 7 C-7.3 6.67 -10.6 6.34 -14 6 C-14.33 4.35 -14.66 2.7 -15 1 C-9.92928099 0.28832014 -5.11791642 -0.10662326 0 0 Z " fill="#B6B6B6" transform="translate(131,115)"/>
<path d="M0 0 C6.93 0.495 6.93 0.495 14 1 C14 2.65 14 4.3 14 6 C9.38 6 4.76 6 0 6 C0 4.02 0 2.04 0 0 Z " fill="#B8B7B8" transform="translate(82,115)"/>
<path d="M0 0 C0.99 0.66 1.98 1.32 3 2 C2.34 3.98 1.68 5.96 1 8 C0.34 8 -0.32 8 -1 8 C-1.66 10.64 -2.32 13.28 -3 16 C-5.125 14.5 -5.125 14.5 -7 12 C-6.74623625 9.10929988 -5.92790671 6.78372014 -5 4 C-4.34 4 -3.68 4 -3 4 C-3 3.34 -3 2.68 -3 2 C-2.01 1.34 -1.02 0.68 0 0 Z " fill="#C43088" transform="translate(42,90)"/>
<path d="M0 0 C5.45454545 -0.36363636 5.45454545 -0.36363636 7.875 1.25 C9 3 9 3 9 7 C7.37536158 7.05395478 5.75021459 7.09277195 4.125 7.125 C3.22007813 7.14820312 2.31515625 7.17140625 1.3828125 7.1953125 C-1 7 -1 7 -3 5 C-3 4.01 -3 3.02 -3 2 C-2.01 2 -1.02 2 0 2 C0 1.34 0 0.68 0 0 Z " fill="#F0DDEC" transform="translate(55,85)"/>
<path d="M0 0 C0.67661384 2.10502084 1.12701243 3.52536379 0.54711914 5.69238281 C-0.20405041 8.86063564 -0.22306561 11.91828711 -0.31640625 15.171875 C-0.33718735 15.8542926 -0.35796844 16.53671021 -0.37937927 17.23980713 C-0.44452052 19.40977356 -0.50359404 21.57985624 -0.5625 23.75 C-0.60571897 25.22527221 -0.64933432 26.70053287 -0.69335938 28.17578125 C-0.80016518 31.78373166 -0.90153153 35.39181133 -1 39 C-1.66 39 -2.32 39 -3 39 C-4.13543717 31.45087721 -3.94186855 24.24785666 -3.1875 16.6875 C-3.0639917 15.41664551 -3.0639917 15.41664551 -2.93798828 14.12011719 C-2.40416105 9.21045116 -1.50471495 4.70461509 0 0 Z " fill="#61C5F9" transform="translate(8,78)"/>
<path d="M0 0 C1.28583984 0.10054688 1.28583984 0.10054688 2.59765625 0.203125 C5.34090835 0.84428576 6.30029529 1.4755289 7.9375 3.75 C8.60707496 6.42318858 8.71112708 8.98825037 8.9375 11.75 C8.69 11.1725 8.4425 10.595 8.1875 10 C6.66032136 7.25107845 5.48863208 5.62978153 2.9375 3.75 C-2.32399114 3.24082344 -6.10854869 3.76841948 -11.0625 5.75 C-11.7225 5.09 -12.3825 4.43 -13.0625 3.75 C-8.71855076 0.18175598 -5.56344882 -0.50347953 0 0 Z " fill="#F7965E" transform="translate(60.0625,80.25)"/>
<path d="M0 0 C1.485 0.99 1.485 0.99 3 2 C3 2.66 3 3.32 3 4 C3.99 4 4.98 4 6 4 C6 4.66 6 5.32 6 6 C9.96 6.33 13.92 6.66 18 7 C17 11 17 11 15 14 C13.68 13.67 12.36 13.34 11 13 C10.67 11.02 10.34 9.04 10 7 C8.68 7 7.36 7 6 7 C6 9.31 6 11.62 6 14 C5.67 14 5.34 14 5 14 C5 11.03 5 8.06 5 5 C4.01 5 3.02 5 2 5 C1.34 3.35 0.68 1.7 0 0 Z " fill="#D1DBF4" transform="translate(26,109)"/>
<path d="M0 0 C0 3.52032428 -0.70351351 4.4385343 -3 7 C-3.66 7 -4.32 7 -5 7 C-5.33 7.99 -5.66 8.98 -6 10 C-6.66 10 -7.32 10 -8 10 C-8.33 10.99 -8.66 11.98 -9 13 C-11.109375 14.75390625 -11.109375 14.75390625 -13.75 16.5625 C-15.04164063 17.46162109 -15.04164063 17.46162109 -16.359375 18.37890625 C-18.85741386 19.91246561 -21.28507848 20.92418926 -24 22 C-24.66 22.66 -25.32 23.32 -26 24 C-26.99 24 -27.98 24 -29 24 C-29 23.34 -29 22.68 -29 22 C-28.18208984 21.56300781 -28.18208984 21.56300781 -27.34765625 21.1171875 C-22.39505912 18.4250065 -17.68210051 15.53463769 -13.04296875 12.33203125 C-11 11 -11 11 -8.80078125 10.01171875 C-6.64936898 9.06843425 -6.64936898 9.06843425 -6 6 C-4.37446717 4.29319053 -2.70884005 2.62339805 -1 1 C-0.67 0.67 -0.34 0.34 0 0 Z " fill="#E371BC" transform="translate(173,171)"/>
<path d="M0 0 C0.99 0.66 1.98 1.32 3 2 C2.67 4.31 2.34 6.62 2 9 C4.97 9 7.94 9 11 9 C10.67 9.99 10.34 10.98 10 12 C4.69619048 11.54277504 0.55455549 10.99934142 -4 8 C-4.875 5.8125 -4.875 5.8125 -5 4 C-4.01 4.495 -4.01 4.495 -3 5 C-2.01 3.35 -1.02 1.7 0 0 Z " fill="#8243CC" transform="translate(35,102)"/>
<path d="M0 0 C0.66 0 1.32 0 2 0 C2.33 0.66 2.66 1.32 3 2 C6.02934491 2.65772428 6.02934491 2.65772428 9 3 C9 3.33 9 3.66 9 4 C6.36 4.33 3.72 4.66 1 5 C0.67 5.99 0.34 6.98 0 8 C-2.97 8 -5.94 8 -9 8 C-9 7.34 -9 6.68 -9 6 C-9.99 6 -10.98 6 -12 6 C-12 5.34 -12 4.68 -12 4 C-9.36 3.67 -6.72 3.34 -4 3 C-4 3.99 -4 4.98 -4 6 C-3.34 6 -2.68 6 -2 6 C-2 4.68 -2 3.36 -2 2 C-1.34 2 -0.68 2 0 2 C0 1.34 0 0.68 0 0 Z " fill="#B3B6BA" transform="translate(157,113)"/>
<path d="M0 0 C0.66 0 1.32 0 2 0 C2 1.65 2 3.3 2 5 C1.01 5.495 1.01 5.495 0 6 C-0.65772428 9.02934491 -0.65772428 9.02934491 -1 12 C-1.99 12 -2.98 12 -4 12 C-4 11.34 -4 10.68 -4 10 C-5.98 10 -7.96 10 -10 10 C-10 9.34 -10 8.68 -10 8 C-9.443125 7.773125 -8.88625 7.54625 -8.3125 7.3125 C-5.36305245 5.63848923 -3.3247731 3.45043651 -1 1 C-0.67 0.67 -0.34 0.34 0 0 Z " fill="#F5DEDD" transform="translate(62,103)"/>
<path d="M0 0 C-0.99 0.33 -1.98 0.66 -3 1 C-3 1.66 -3 2.32 -3 3 C-3.66 3 -4.32 3 -5 3 C-5 3.99 -5 4.98 -5 6 C-6.4540625 6.5878125 -6.4540625 6.5878125 -7.9375 7.1875 C-11.22176391 8.67594887 -11.22176391 8.67594887 -11.875 11.6875 C-11.91625 12.450625 -11.9575 13.21375 -12 14 C-12.99 14 -13.98 14 -15 14 C-14.45015319 9.46376381 -12.80555691 5.59323693 -10 2 C-6.44506957 -0.36995362 -4.09300926 -1.73165777 0 0 Z " fill="#8741D5" transform="translate(42,91)"/>
<path d="M0 0 C1.43088528 2.86177057 0.59991697 4.93375773 0 8 C0.99 8 1.98 8 3 8 C3.33 6.68 3.66 5.36 4 4 C5.60725635 7.21451269 5.05748185 10.43612536 5 14 C3.081875 13.8453125 3.081875 13.8453125 1.125 13.6875 C0.04605469 13.60048828 0.04605469 13.60048828 -1.0546875 13.51171875 C-3 13 -3 13 -5 10 C-3.68 10 -2.36 10 -1 10 C-1.33 9.01 -1.66 8.02 -2 7 C-1.40206327 4.64811553 -0.74118205 2.31074405 0 0 Z " fill="#EF5E95" transform="translate(62,108)"/>
<path d="M0 0 C0.37952295 6.19887485 -0.1647887 10.4477112 -3 16 C-3.99 16 -4.98 16 -6 16 C-6.41386916 10.61970091 -5.23709068 5.87439483 -3 1 C-1 0 -1 0 0 0 Z " fill="#F88132" transform="translate(68,100)"/>
<path d="M0 0 C1.98 0 3.96 0 6 0 C6.66 0.99 7.32 1.98 8 3 C6.68 3.33 5.36 3.66 4 4 C3.67 7.3 3.34 10.6 3 14 C2.01 14 1.02 14 0 14 C0 9.38 0 4.76 0 0 Z " fill="#3B6B9D" transform="translate(106,97)"/>
<path d="M0 0 C-11.05857291 4.94106449 -21.91442776 8.05891036 -34 9 C-31.07897424 6.07897424 -27.54853379 5.90644245 -23.625 5.125 C-16.94682468 3.73615823 -10.59118413 2.02920629 -4.1875 -0.36328125 C-2 -1 -2 -1 0 0 Z " fill="#CF53C7" transform="translate(144,196)"/>
<path d="M0 0 C1.98 0 3.96 0 6 0 C7.38226016 2.76452033 7.09525387 5.0461363 7.0625 8.125 C7.05347656 9.22070312 7.04445312 10.31640625 7.03515625 11.4453125 C7.02355469 12.28835937 7.01195312 13.13140625 7 14 C6.01 14 5.02 14 4 14 C3.67 10.04 3.34 6.08 3 2 C2.01 2 1.02 2 0 2 C0 1.34 0 0.68 0 0 Z " fill="#2D5F94" transform="translate(148,97)"/>
<path d="M0 0 C4.4787987 0.43695597 7.37512398 1.72942906 11.1875 4.078125 C14.07699591 5.5477824 16.78987343 5.73794885 20 6 C20 6.66 20 7.32 20 8 C13.02448238 8.63413797 8.72331415 7.00744876 3 3 C1.97304874 2.02769803 0.96288555 1.03578541 0 0 Z " fill="#5C5ACD" transform="translate(41,89)"/>
<path d="M0 0 C1.2065625 0.0309375 1.2065625 0.0309375 2.4375 0.0625 C3.0625 2.375 3.0625 2.375 3.4375 5.0625 C2.4475 6.5475 2.4475 6.5475 1.4375 8.0625 C-2.4375 7.1875 -2.4375 7.1875 -3.5625 6.0625 C-3.6875 3.5625 -3.6875 3.5625 -3.5625 1.0625 C-2.5625 0.0625 -2.5625 0.0625 0 0 Z " fill="#D6DEE8" transform="translate(134.5625,99.9375)"/>
<path d="M0 0 C0.33 0 0.66 0 1 0 C1 4.62 1 9.24 1 14 C0.01 13.67 -0.98 13.34 -2 13 C-3.20272819 10.59454362 -3.10071472 9.05003047 -3.0625 6.375 C-3.05347656 5.55773437 -3.04445313 4.74046875 -3.03515625 3.8984375 C-3.02355469 3.27195312 -3.01195313 2.64546875 -3 2 C-2.34 2 -1.68 2 -1 2 C-0.67 1.34 -0.34 0.68 0 0 Z " fill="#8A68DA" transform="translate(24,89)"/>
<path d="M0 0 C2.97 0 5.94 0 9 0 C8.01 0.33 7.02 0.66 6 1 C6 5.62 6 10.24 6 15 C5.67 13.68 5.34 12.36 5 11 C4.34 11 3.68 11 3 11 C3 7.7 3 4.4 3 1 C2.01 0.67 1.02 0.34 0 0 Z " fill="#D0C9E4" transform="translate(100,96)"/>
<path d="M0 0 C1.2065625 0.0309375 1.2065625 0.0309375 2.4375 0.0625 C2.4375 2.3725 2.4375 4.6825 2.4375 7.0625 C0.5625 7.6875 0.5625 7.6875 -1.5625 8.0625 C-3.5625 6.0625 -3.5625 6.0625 -3.75 3.5 C-3.4919783 0.14571793 -3.38163728 0.08247896 0 0 Z " fill="#DAE1EA" transform="translate(163.5625,99.9375)"/>
<path d="M0 0 C2.97 0.33 5.94 0.66 9 1 C9 5.62 9 10.24 9 15 C8.34 15 7.68 15 7 15 C6.06576355 11.98968256 5.95550089 11.13349732 7 8 C6.11680706 4.84979639 6.11680706 4.84979639 5 2 C3.35 2 1.7 2 0 2 C0 1.34 0 0.68 0 0 Z " fill="#0A4482" transform="translate(161,97)"/>
<path d="M0 0 C2.75 0.8125 2.75 0.8125 5 2 C3.125 3.0625 3.125 3.0625 1 4 C0.34 3.67 -0.32 3.34 -1 3 C-1 6.3 -1 9.6 -1 13 C-2.33333333 13 -3.66666667 13 -5 13 C-5.33 9.04 -5.66 5.08 -6 1 C-5.34 1.66 -4.68 2.32 -4 3 C-3.443125 2.46375 -2.88625 1.9275 -2.3125 1.375 C-1.549375 0.92125 -0.78625 0.4675 0 0 Z " fill="#6388B0" transform="translate(131,97)"/>
<path d="M0 0 C1.67542976 0.28604898 3.34385343 0.61781233 5 1 C6.3271261 4.9813783 6.06915913 8.85045227 6 13 C5.01 13 4.02 13 3 13 C2.96261719 12.30132812 2.92523438 11.60265625 2.88671875 10.8828125 C2.82097656 9.97273438 2.75523438 9.06265625 2.6875 8.125 C2.62949219 7.22007813 2.57148437 6.31515625 2.51171875 5.3828125 C2.2117961 2.63778399 2.2117961 2.63778399 -1 1 C-0.67 0.67 -0.34 0.34 0 0 Z " fill="#104A88" transform="translate(120,97)"/>
<path d="M0 0 C0.99 0 1.98 0 3 0 C3 3.63 3 7.26 3 11 C3.99 11.33 4.98 11.66 6 12 C5.01 12.33 4.02 12.66 3 13 C2.01 12.34 1.02 11.68 0 11 C-0.29296875 8.3984375 -0.29296875 8.3984375 -0.1875 5.375 C-0.16042969 4.37210937 -0.13335937 3.36921875 -0.10546875 2.3359375 C-0.07066406 1.56507812 -0.03585938 0.79421875 0 0 Z " fill="#8134B7" transform="translate(91,97)"/>
<path d="M0 0 C1.98 0.66 3.96 1.32 6 2 C6 3.32 6 4.64 6 6 C3.625 6.125 3.625 6.125 1 6 C0.34 5.34 -0.32 4.68 -1 4 C-1.33 5.98 -1.66 7.96 -2 10 C-2.33 10 -2.66 10 -3 10 C-3.36923077 3.47692308 -3.36923077 3.47692308 -1.5 1.0625 C-1.005 0.711875 -0.51 0.36125 0 0 Z " fill="#6E8FB3" transform="translate(180,97)"/>
<path d="M0 0 C-1.32 3.3 -2.64 6.6 -4 10 C-4.99 9.34 -5.98 8.68 -7 8 C-7.4375 5.0625 -7.4375 5.0625 -7 2 C-4.34311663 -0.84011671 -3.7870049 -1.26233497 0 0 Z " fill="#D3BCE5" transform="translate(37,98)"/>
<path d="M0 0 C0.66 0.33 1.32 0.66 2 1 C2.625 3.5625 2.625 3.5625 3 6 C3.804375 6.144375 4.60875 6.28875 5.4375 6.4375 C8 7 8 7 9 8 C10.34747084 8.23075082 11.70377565 8.41153063 13.0625 8.5625 C14.361875 8.706875 15.66125 8.85125 17 9 C17 9.33 17 9.66 17 10 C6.25574742 10.86030492 6.25574742 10.86030492 2.375 7.75 C-0.89411765 3.96470588 -0.89411765 3.96470588 -1 1 C-0.67 0.67 -0.34 0.34 0 0 Z " fill="#6551E2" transform="translate(28,104)"/>
<path d="M0 0 C0.33 0 0.66 0 1 0 C1.33 7.59 1.66 15.18 2 23 C1.01 22.67 0.02 22.34 -1 22 C-1.11459026 14.58982977 -0.91160286 7.35793733 0 0 Z " fill="#E15689" transform="translate(48,94)"/>
<path d="M0 0 C1.12080094 3.36240283 0.93568182 3.78467681 -0.375 6.875 C-1.60028653 9.9074443 -2.492556 12.75235837 -3 16 C-3.99 16.33 -4.98 16.66 -6 17 C-5.57664615 10.50857435 -3.08900201 5.66507011 0 0 Z " fill="#4396FA" transform="translate(9,58)"/>
<path d="M0 0 C0.66 0 1.32 0 2 0 C1.67 1.32 1.34 2.64 1 4 C1.99 4 2.98 4 4 4 C3.34 6.64 2.68 9.28 2 12 C-0.125 10.5 -0.125 10.5 -2 8 C-1.74623625 5.10929988 -0.92790671 2.78372014 0 0 Z " fill="#B746AE" transform="translate(37,94)"/>
<path d="M0 0 C0.268125 0.556875 0.53625 1.11375 0.8125 1.6875 C1.4003125 2.8321875 1.4003125 2.8321875 2 4 C2.433125 4.86625 2.86625 5.7325 3.3125 6.625 C5.28842651 9.4059336 6.77947903 10.04254782 10 11 C10 11.33 10 11.66 10 12 C6.6875 12.3125 6.6875 12.3125 3 12 C0.2292932 9.05053792 0.01151394 7.23411674 -0.1875 3.1875 C-0.125625 2.135625 -0.06375 1.08375 0 0 Z " fill="#47A1F1" transform="translate(32,116)"/>
<path d="M0 0 C0.66 0.33 1.32 0.66 2 1 C2.22991927 5.71334503 1.57210668 9.54569773 0 14 C-0.99 14.495 -0.99 14.495 -2 15 C-2.21755666 9.5610835 -2.10428384 5.12919186 0 0 Z " fill="#1BB0FA" transform="translate(2,77)"/>
<path d="M0 0 C0.66 0 1.32 0 2 0 C2 1.65 2 3.3 2 5 C3.32 5 4.64 5 6 5 C5.34 6.32 4.68 7.64 4 9 C0.7 9 -2.6 9 -6 9 C-5.67 8.34 -5.34 7.68 -5 7 C-4.01 7.33 -3.02 7.66 -2 8 C-0.23537317 4.91190305 0 3.76687864 0 0 Z " fill="#A562D4" transform="translate(43,115)"/>
<path d="M0 0 C2.125 0.9375 2.125 0.9375 4 2 C3.6875 3.9375 3.6875 3.9375 3 6 C2.01 6.33 1.02 6.66 0 7 C-0.66 6.67 -1.32 6.34 -2 6 C-2 4.35 -2 2.7 -2 1 C-1.34 0.67 -0.68 0.34 0 0 Z " fill="#B9B9B9" transform="translate(134,115)"/>
<path d="M0 0 C1.98 0 3.96 0 6 0 C6 1.65 6 3.3 6 5 C7.65 5 9.3 5 11 5 C11 5.33 11 5.66 11 6 C7.7 5.67 4.4 5.34 1 5 C0.67 3.35 0.34 1.7 0 0 Z " fill="#CBCBCB" transform="translate(116,116)"/>
<path d="M0 0 C0.66 0.99 1.32 1.98 2 3 C1.34 4.32 0.68 5.64 0 7 C-2.31 7 -4.62 7 -7 7 C-7.33 6.01 -7.66 5.02 -8 4 C-4.535 3.505 -4.535 3.505 -1 3 C-0.67 2.01 -0.34 1.02 0 0 Z " fill="#2A5F96" transform="translate(167,109)"/>
<path d="M0 0 C0.66 0 1.32 0 2 0 C-0.71477722 5.88201731 -4.29968017 10.56080905 -9 15 C-7.79620186 9.41875407 -6.35036733 6.91533059 -2 3 C-1.34 2.01 -0.68 1.02 0 0 Z " fill="#794AE4" transform="translate(25,33)"/>
<path d="M0 0 C0 0.66 0 1.32 0 2 C-3.3 2.33 -6.6 2.66 -10 3 C-10 3.66 -10 4.32 -10 5 C-11.65 4.67 -13.3 4.34 -15 4 C-14.67 3.34 -14.34 2.68 -14 2 C-12.1875 1.4375 -12.1875 1.4375 -10 1 C-9.071875 0.7215625 -9.071875 0.7215625 -8.125 0.4375 C-5.39188876 -0.12519937 -2.78203873 -0.06322815 0 0 Z " fill="#C54081" transform="translate(61,83)"/>
<path d="M0 0 C0.66 0 1.32 0 2 0 C3.50312477 2.07828493 4.85724824 4.12791551 6.1875 6.3125 C6.56841797 6.90740234 6.94933594 7.50230469 7.34179688 8.11523438 C8.31362948 9.69380094 9.16521849 11.34486531 10 13 C9.67 13.99 9.34 14.98 9 16 C7.86968397 14.27430361 6.74596893 12.54428261 5.625 10.8125 C4.99851563 9.84957031 4.37203125 8.88664062 3.7265625 7.89453125 C2.18011688 5.30196064 1.02491925 2.83146884 0 0 Z " fill="#FDB349" transform="translate(179,44)"/>
<path d="M0 0 C0.33 0 0.66 0 1 0 C1 2.97 1 5.94 1 9 C-0.65 8.67 -2.3 8.34 -4 8 C-4.33 6.68 -4.66 5.36 -5 4 C-4.01 4.495 -4.01 4.495 -3 5 C-2.525625 4.175 -2.05125 3.35 -1.5625 2.5 C-1.046875 1.675 -0.53125 0.85 0 0 Z " fill="#8A6ED7" transform="translate(35,102)"/>
<path d="M0 0 C2.97 0 5.94 0 9 0 C9 1.65 9 3.3 9 5 C4.545 4.01 4.545 4.01 0 3 C0 2.01 0 1.02 0 0 Z " fill="#B6C6D8" transform="translate(181,105)"/>
<path d="M0 0 C2.475 0.495 2.475 0.495 5 1 C5 1.66 5 2.32 5 3 C5.61875 3.061875 6.2375 3.12375 6.875 3.1875 C9 4 9 4 10.25 6.5625 C10.4975 7.366875 10.745 8.17125 11 9 C7.08158173 7.69386058 4.67359191 6.16870152 2 3 C2 2.34 2 1.68 2 1 C1.34 0.67 0.68 0.34 0 0 Z " fill="#6CA2EF" transform="translate(38,82)"/>
<path d="M0 0 C0.66 0.33 1.32 0.66 2 1 C3.33059914 4.99179743 2.81502739 7.26317891 1 11 C-1.64 10.67 -4.28 10.34 -7 10 C-7 9.67 -7 9.34 -7 9 C-5.02 8.67 -3.04 8.34 -1 8 C-0.67 5.36 -0.34 2.72 0 0 Z " fill="#517AA6" transform="translate(166,101)"/>
<path d="M0 0 C2.97 0.495 2.97 0.495 6 1 C6.33 2.98 6.66 4.96 7 7 C4.36 7 1.72 7 -1 7 C-1 6.67 -1 6.34 -1 6 C0.65 5.67 2.3 5.34 4 5 C4 4.34 4 3.68 4 3 C2.35 2.67 0.7 2.34 -1 2 C-0.67 1.34 -0.34 0.68 0 0 Z " fill="#194F89" transform="translate(182,97)"/>
<path d="M0 0 C0.66 0.33 1.32 0.66 2 1 C3.28317892 4.84953676 3.06643637 7.94738135 3 12 C2.67 12 2.34 12 2 12 C1.67 10.02 1.34 8.04 1 6 C0.34 6 -0.32 6 -1 6 C-1.33 7.32 -1.66 8.64 -2 10 C-2 9.34 -2 8.68 -2 8 C-2.66 7.67 -3.32 7.34 -4 7 C-3.34 7 -2.68 7 -2 7 C-1.34 4.69 -0.68 2.38 0 0 Z " fill="#F4A76F" transform="translate(66,95)"/>
<path d="M0 0 C2.31 0.33 4.62 0.66 7 1 C7.33 1.99 7.66 2.98 8 4 C5.03 3.67 2.06 3.34 -1 3 C-0.67 2.01 -0.34 1.02 0 0 Z " fill="#D92690" transform="translate(53,114)"/>
<path d="M0 0 C1.33597652 0.80814651 2.668725 1.62163181 4 2.4375 C5.11375 3.11619141 5.11375 3.11619141 6.25 3.80859375 C6.8275 4.20175781 7.405 4.59492187 8 5 C8 5.33 8 5.66 8 6 C5.69 6 3.38 6 1 6 C0.34 4.35 -0.32 2.7 -1 1 C-0.67 0.67 -0.34 0.34 0 0 Z " fill="#225790" transform="translate(158,104)"/>
<path d="M0 0 C1.32 0.33 2.64 0.66 4 1 C3.67 3.97 3.34 6.94 3 10 C-0.00617269 6.99382731 0.40414684 4.17618402 0 0 Z " fill="#CB554A" transform="translate(49,95)"/>
<path d="M0 0 C3.71888239 0.50712033 6.73454239 1.11608215 10 3 C9.01 4.485 9.01 4.485 8 6 C6.66402348 5.19185349 5.331275 4.37836819 4 3.5625 C3.2575 3.11003906 2.515 2.65757813 1.75 2.19140625 C1.1725 1.79824219 0.595 1.40507813 0 1 C0 0.67 0 0.34 0 0 Z " fill="#4D6ADA" transform="translate(41,89)"/>
<path d="M0 0 C4.42761914 1.39153744 6.9556255 3.52071486 10 7 C10 7.66 10 8.32 10 9 C5.68679932 7.24277009 2.0968916 4.1937832 0 0 Z " fill="#FCB371" transform="translate(162,27)"/>
<path d="M0 0 C2.31 0 4.62 0 7 0 C7.33 0.66 7.66 1.32 8 2 C6.9275 2.28875 5.855 2.5775 4.75 2.875 C1.90599636 3.72820109 -0.43508983 4.5636503 -3 6 C-2.01 4.02 -1.02 2.04 0 0 Z " fill="#EAD2E9" transform="translate(50,118)"/>
<path d="M0 0 C0.33 0.66 0.66 1.32 1 2 C1.66 2 2.32 2 3 2 C2.67 3.98 2.34 5.96 2 8 C1.01 8 0.02 8 -1 8 C-1.125 2.25 -1.125 2.25 0 0 Z " fill="#F55C4E" transform="translate(63,108)"/>
<path d="M0 0 C0.99 0.33 1.98 0.66 3 1 C3 4.3 3 7.6 3 11 C2.67 11 2.34 11 2 11 C1.67 8.69 1.34 6.38 1 4 C0.01 4.33 -0.98 4.66 -2 5 C-1.34 3.35 -0.68 1.7 0 0 Z " fill="#E8D1DF" transform="translate(45,93)"/>
<path d="M0 0 C0 1.32 0 2.64 0 4 C-2.31 4 -4.62 4 -7 4 C-7 3.01 -7 2.02 -7 1 C-4 0 -4 0 0 0 Z " fill="#A2A1A1" transform="translate(113,116)"/>
<path d="M0 0 C1.43088528 2.86177057 0.59991697 4.93375773 0 8 C-0.99 8 -1.98 8 -3 8 C-3.36923077 3.44615385 -3.36923077 3.44615385 -1.5 1.1875 C-1.005 0.795625 -0.51 0.40375 0 0 Z " fill="#DA5A6D" transform="translate(57,101)"/>
<path d="M0 0 C0.99 0 1.98 0 3 0 C3 1.98 3 3.96 3 6 C1.68 6 0.36 6 -1 6 C-1.042721 4.33388095 -1.04063832 2.66617115 -1 1 C-0.67 0.67 -0.34 0.34 0 0 Z " fill="#BDBDBD" transform="translate(141,115)"/>
<path d="M0 0 C-0.99 0.33 -1.98 0.66 -3 1 C-3 1.66 -3 2.32 -3 3 C-3.66 3 -4.32 3 -5 3 C-5 3.66 -5 4.32 -5 5 C-5.99 4.67 -6.98 4.34 -8 4 C-5.97675095 -0.48005146 -4.79569304 -1.43870791 0 0 Z " fill="#7550B3" transform="translate(42,91)"/>
<path d="M0 0 C0.99 0 1.98 0 3 0 C3 2.64 3 5.28 3 8 C1.68 8 0.36 8 -1 8 C-1 7.34 -1 6.68 -1 6 C-0.34 5.67 0.32 5.34 1 5 C1 4.01 1 3.02 1 2 C0.34 1.67 -0.32 1.34 -1 1 C-0.67 0.67 -0.34 0.34 0 0 Z " fill="#D7D7D7" transform="translate(129,114)"/>
<path d="M0 0 C0.66 0.66 1.32 1.32 2 2 C1.67 2.66 1.34 3.32 1 4 C0.34 4 -0.32 4 -1 4 C-1.66 5.32 -2.32 6.64 -3 8 C-3.33 6.68 -3.66 5.36 -4 4 C-3.34 4 -2.68 4 -2 4 C-1.34 2.68 -0.68 1.36 0 0 Z " fill="#F66B49" transform="translate(63,98)"/>
<path d="M0 0 C0.99 0 1.98 0 3 0 C3 2.64 3 5.28 3 8 C2.67 7.34 2.34 6.68 2 6 C1.34 6 0.68 6 0 6 C0 4.02 0 2.04 0 0 Z " fill="#4564E2" transform="translate(21,91)"/>
<path d="M0 0 C0.66 0 1.32 0 2 0 C1.67 2.64 1.34 5.28 1 8 C0.34 7.67 -0.32 7.34 -1 7 C-1.04254356 5.00045254 -1.04080783 2.99958364 -1 1 C-0.67 0.67 -0.34 0.34 0 0 Z " fill="#E9E7F4" transform="translate(32,100)"/>
<path d="M0 0 C1.65 0 3.3 0 5 0 C3.625 2.5 3.625 2.5 2 5 C1.34 5 0.68 5 0 5 C0 3.35 0 1.7 0 0 Z " fill="#F1E1E4" transform="translate(54,98)"/>
<path d="M0 0 C0.99 0 1.98 0 3 0 C3.33 1.65 3.66 3.3 4 5 C3.01 5.33 2.02 5.66 1 6 C0.67 4.02 0.34 2.04 0 0 Z " fill="#675CDE" transform="translate(33,116)"/>
</svg>
